<svg width="23" height="24" viewBox="0 0 23 24" fill="none" xmlns="http://www.w3.org/2000/svg">
<path d="M11.5004 0.363281C8.43898 0.363281 8.05478 0.3771 6.8524 0.433585C5.65236 0.490312 4.83323 0.686433 4.11649 0.97419C3.3751 1.2714 2.74619 1.66898 2.11964 2.31601C1.49261 2.9628 1.10747 3.61201 0.818616 4.3771C0.539155 5.11722 0.348933 5.96304 0.29492 7.20134C0.241141 8.44255 0.227051 8.8394 0.227051 11.9996C0.227051 15.1599 0.240672 15.5553 0.295155 16.7965C0.350343 18.0353 0.540329 18.8809 0.818851 19.6207C1.107 20.3861 1.49214 21.0353 2.11893 21.6821C2.74525 22.3293 3.37416 22.7279 4.11508 23.0251C4.83229 23.3129 5.65165 23.509 6.85146 23.5657C8.05384 23.6222 8.43781 23.636 11.499 23.636C14.5606 23.636 14.9436 23.6222 16.146 23.5657C17.3461 23.509 18.1661 23.3129 18.8833 23.0251C19.6245 22.7279 20.2524 22.3293 20.8788 21.6821C21.5058 21.0353 21.8909 20.3861 22.1798 19.621C22.4569 18.8809 22.6471 18.035 22.7035 16.7967C22.7575 15.5555 22.7716 15.1599 22.7716 11.9996C22.7716 8.8394 22.7575 8.4428 22.7035 7.20158C22.6471 5.9628 22.4569 5.11722 22.1798 4.37734C21.8909 3.61201 21.5058 2.9628 20.8788 2.31601C20.2517 1.66874 19.6247 1.27116 18.8826 0.97419C18.164 0.686433 17.3444 0.490312 16.1444 0.433585C14.942 0.3771 14.5592 0.363281 11.4969 0.363281H11.5004ZM10.4892 2.46025C10.7893 2.45977 11.1242 2.46025 11.5004 2.46025C14.5101 2.46025 14.8668 2.4714 16.0554 2.52716C17.1544 2.57904 17.7509 2.76861 18.1483 2.92789C18.6743 3.1388 19.0494 3.39092 19.4437 3.79819C19.8382 4.20546 20.0824 4.59334 20.2872 5.13637C20.4415 5.54607 20.6254 6.16183 20.6754 7.29637C20.7294 8.52304 20.7411 8.89152 20.7411 11.997C20.7411 15.1024 20.7294 15.4709 20.6754 16.6976C20.6251 17.8321 20.4415 18.4479 20.2872 18.8576C20.0829 19.4006 19.8382 19.7873 19.4437 20.1943C19.0491 20.6016 18.6745 20.8537 18.1483 21.0646C17.7514 21.2246 17.1544 21.4137 16.0554 21.4656C14.8671 21.5213 14.5101 21.5335 11.5004 21.5335C8.49041 21.5335 8.13369 21.5213 6.94539 21.4656C5.84634 21.4132 5.24984 21.2236 4.85225 21.0644C4.32621 20.8535 3.95046 20.6013 3.55593 20.1941C3.16139 19.7868 2.91716 19.3999 2.71238 18.8566C2.55809 18.4469 2.37421 17.8312 2.32418 16.6966C2.27017 15.4699 2.25937 15.1015 2.25937 11.9941C2.25937 8.88667 2.27017 8.52013 2.32418 7.29346C2.37444 6.15892 2.55809 5.54316 2.71238 5.13298C2.91669 4.58995 3.16139 4.20207 3.55593 3.7948C3.95046 3.38752 4.32621 3.1354 4.85225 2.92401C5.2496 2.76401 5.84634 2.57492 6.94539 2.5228C7.98527 2.47431 8.38826 2.45977 10.4892 2.45734V2.46025ZM17.5175 4.39237C16.7707 4.39237 16.1648 5.0171 16.1648 5.78825C16.1648 6.55916 16.7707 7.18462 17.5175 7.18462C18.2643 7.18462 18.8702 6.55916 18.8702 5.78825C18.8702 5.01734 18.2643 4.39189 17.5175 4.39189V4.39237ZM11.5004 6.02389C8.30348 6.02389 5.71154 8.69952 5.71154 11.9996C5.71154 15.2998 8.30348 17.9742 11.5004 17.9742C14.6973 17.9742 17.2883 15.2998 17.2883 11.9996C17.2883 8.69952 14.697 6.02389 11.5001 6.02389H11.5004ZM11.5004 8.12086C13.5754 8.12086 15.2578 9.85734 15.2578 11.9996C15.2578 14.1417 13.5754 15.8784 11.5004 15.8784C9.42508 15.8784 7.74292 14.1417 7.74292 11.9996C7.74292 9.85734 9.42508 8.12086 11.5004 8.12086Z" fill="white"/>
</svg>
