<svg width="37" height="37" viewBox="0 0 37 37" fill="none" xmlns="http://www.w3.org/2000/svg">
<path d="M20.0072 18.5328C20.0072 23.7964 17.0228 28.0633 13.3415 28.0633C9.66019 28.0633 6.67554 23.7964 6.67554 18.5328C6.67554 13.2692 9.65997 9.00195 13.3415 9.00195C17.023 9.00195 20.0072 13.2692 20.0072 18.5328Z" fill="white"/>
<path d="M27.3196 18.5321C27.3196 23.4866 25.8274 27.5047 23.9867 27.5047C22.146 27.5047 20.6538 23.4866 20.6538 18.5321C20.6538 13.5776 22.1458 9.55957 23.9865 9.55957C25.8272 9.55957 27.3194 13.5763 27.3194 18.5321" fill="white"/>
<path d="M30.3109 18.5321C30.3109 22.9702 29.7862 26.5701 29.1387 26.5701C28.4913 26.5701 27.9668 22.9711 27.9668 18.5321C27.9668 14.0931 28.4915 10.4941 29.1387 10.4941C29.786 10.4941 30.3109 14.0928 30.3109 18.5321Z" fill="white"/>
</svg>
